<svg xmlns="http://www.w3.org/2000/svg" width="29.882" height="25.619" viewBox="0 0 29.882 25.619">
  <g id="Group_153" data-name="Group 153" transform="translate(-1276.642 -564.987)">
    <path id="Path_312" data-name="Path 312" d="M1291.61,564.988q6.292,0,12.584,0a2.148,2.148,0,0,1,2.267,1.637,2.116,2.116,0,0,1-1.715,2.595,4.077,4.077,0,0,1-.622.044q-12.543,0-25.085,0a2.18,2.18,0,0,1-2.338-1.658,2.121,2.121,0,0,1,1.7-2.571,4.793,4.793,0,0,1,.747-.047Q1285.381,564.986,1291.61,564.988Z" transform="translate(-0.002 0)" fill="#992424"/>
    <path id="Path_313" data-name="Path 313" d="M1291.573,760.942q-6.292,0-12.584,0a2.157,2.157,0,0,1-2.269-1.636,2.117,2.117,0,0,1,1.714-2.6,4.062,4.062,0,0,1,.622-.044q12.543,0,25.085,0a2.162,2.162,0,0,1,2.313,1.576,2.111,2.111,0,0,1-1.717,2.658,4.835,4.835,0,0,1-.705.042Q1297.8,760.944,1291.573,760.942Z" transform="translate(-0.012 -170.336)" fill="#992424"/>
    <path id="Path_314" data-name="Path 314" d="M1285.164,665.1c-2.07,0-4.141,0-6.211,0a2.159,2.159,0,0,1-2.254-1.659,2.125,2.125,0,0,1,1.707-2.571,3.149,3.149,0,0,1,.5-.045q6.274,0,12.548,0a2.132,2.132,0,0,1,.5,4.227,4.252,4.252,0,0,1-.664.047Q1288.228,665.1,1285.164,665.1Z" transform="translate(0 -85.162)" fill="#992424"/>
  </g>
</svg>
